<svg fill="#344054" xmlns="http://www.w3.org/2000/svg"  viewBox="0 0 50 50" width="50px" height="50px"><path d="M 17.154297 3.0019531 C 14.919432 3.047416 12.930006 4.662223 12.507812 6.9414062 L 6.1464844 41.302734 C 5.6653431 43.906927 7.4013846 46.433566 10.005859 46.916016 L 10.007812 46.916016 C 10.301519 46.969526 10.597066 46.996094 10.888672 46.996094 C 13.167667 46.996094 15.19431 45.365562 15.621094 43.056641 L 15.621094 43.054688 L 18.125 29.533203 L 19.535156 39.253906 C 19.536036 39.259965 19.538153 39.265438 19.539062 39.271484 C 19.717121 41.051967 21.036332 42.59215 22.876953 42.931641 L 22.878906 42.931641 C 23.12921 42.977271 23.380623 43 23.628906 43 C 25.581259 43 27.317116 41.599857 27.681641 39.623047 L 27.681641 39.621094 L 29.347656 30.574219 L 30.818359 37.384766 C 30.855433 37.556136 30.907131 37.719942 30.970703 37.876953 C 31.289587 39.389811 32.491702 40.644321 34.097656 40.935547 C 34.33362 40.978943 34.567395 41 34.796875 41 C 36.655479 41 38.304551 39.661827 38.642578 37.779297 L 39.220703 34.572266 L 39.396484 35.316406 C 39.701484 36.602406 40.837203 37.501953 42.158203 37.501953 C 42.378203 37.501953 42.596453 37.476781 42.814453 37.425781 C 43.552453 37.250781 44.178172 36.797344 44.576172 36.152344 C 44.974172 35.503344 45.098828 34.740906 44.923828 34.003906 L 41.703125 20.433594 C 41.639003 20.164035 41.530064 19.91684 41.398438 19.6875 C 40.957846 18.374501 39.848655 17.323759 38.398438 17.0625 C 36.282783 16.681842 34.236158 18.105589 33.855469 20.21875 L 33.580078 21.746094 L 32.109375 14.935547 C 32.019404 13.067745 30.660452 11.423043 28.748047 11.070312 C 26.522033 10.660084 24.353463 12.14831 23.943359 14.378906 L 23.416016 17.246094 L 22.056641 7.8945312 C 22.090471 5.592344 20.458643 3.5146744 18.123047 3.0820312 C 17.797605 3.0218748 17.473563 2.9954584 17.154297 3.0019531 z M 17.1875 5 C 17.375385 4.9968607 17.567207 5.0132346 17.759766 5.0488281 C 19.30129 5.3343783 20.302437 6.7902241 20.017578 8.3320312 L 13.654297 42.691406 L 13.654297 42.693359 C 13.402335 44.059453 12.219064 44.996094 10.888672 44.996094 C 10.719544 44.996094 10.547972 44.981209 10.371094 44.949219 C 8.8295687 44.663669 7.8284225 43.207823 8.1132812 41.666016 L 8.1113281 41.666016 L 14.474609 7.3066406 C 14.724417 5.9580739 15.872305 5.0219753 17.1875 5 z M 27.955078 13.001953 C 28.096608 12.999536 28.239767 13.010388 28.384766 13.037109 C 29.550522 13.252125 30.30475 14.344603 30.089844 15.509766 L 25.714844 39.259766 C 25.524621 40.293972 24.63194 41 23.628906 41 C 23.501823 41 23.373224 40.988974 23.240234 40.964844 L 23.238281 40.964844 C 22.073575 40.749054 21.320358 39.65481 21.535156 38.490234 L 25.910156 14.740234 C 26.097316 13.722256 26.964367 13.018872 27.955078 13.001953 z M 37.654297 18.998047 C 37.782037 18.995448 37.911499 19.005642 38.042969 19.029297 C 39.093005 19.218463 39.774997 20.200546 39.585938 21.25 L 36.673828 37.425781 C 36.505855 38.361252 35.702271 39 34.796875 39 C 34.684355 39 34.57102 38.98935 34.458984 38.96875 L 34.457031 38.96875 L 34.455078 38.96875 C 33.405136 38.779584 32.723048 37.799454 32.912109 36.75 L 35.824219 20.574219 L 35.824219 20.572266 C 35.990547 19.65366 36.760118 19.016237 37.654297 18.998047 z"/></svg>