<?xml version="1.0" encoding="UTF-8"?>
<svg width="1200pt" height="1200pt" version="1.1" viewBox="0 0 1200 1200" xmlns="http://www.w3.org/2000/svg">
 <path d="m244.86 318.84-17.434-126.84-22.527 127.07-126.71 20.328 127.09 19.082 20.305 126.5 18.945-126.34 126.64-17.402z"/>
 <path d="m1013.7 945.09-10.137-73.73-13.094 73.859-73.645 11.82 73.883 11.078 11.797 73.535 11.004-73.441 73.609-10.113z"/>
 <path d="m650.12 231c-85.309 0-163.98 28.414-227.12 76.246-7.8242 14.734-16.117 32.352-24.098 53.219-19.992 7.5859-36.973 15.457-51.348 22.969-27.574 37.164-48.422 79.598-60.84 125.5 18.742-3.875 44.652-8.5078 78.098-12.984-4.1406 29.258-6.8398 61.285-7.5117 96.238h-83.328c-0.20312 5.1016-0.38281 10.199-0.38281 15.348 0 39.406 6.0703 77.41 17.305 113.1 19.141 3.7695 44.102 8.0508 75.359 12.133 5.6289 36.203 13.43 67.848 22.129 95.23-30.406-13.031-52.262-26.051-66.191-35.484 33.324 58.945 82.055 108 140.76 141.7-9.5508-13.906-23.207-36.48-36.758-68.305 26.461 8.4961 57 16.141 91.68 21.816 4.0195 31.586 8.2695 57.035 12.07 76.668 37.754 12.73 78.145 19.715 120.18 19.715 207.98 0 376.57-168.59 376.57-376.55 0-207.96-168.59-376.55-376.57-376.55zm-264.45 481.95c-4.0078-29.953-6.4453-62.867-6.6484-98.879h123.25c0.070313 39.48 0.92578 75.805 2.3047 109.08-46.082-2.6055-85.668-6.2422-118.91-10.199zm120.45-251.93c-44.113 2.3984-82.246 5.7344-114.79 9.4336 6.6953-35.699 15.504-66.48 24.938-92.555 27.562-9.8867 60.422-19.031 98.762-25.727-3.4727 31.09-6.6016 67.293-8.9062 108.85zm132.79 266.04c-40.789-0.19141-78.227-1.1758-112.32-2.7617-1.4766-33.562-2.3516-70.32-2.4375-110.23h114.76zm119.56 141.06c-29.531 4.2969-62.062 7.0781-97.691 7.668v-126.84c38.988-0.12109 74.93-0.98437 107.76-2.3984-2.5117 47.121-6.1211 87.539-10.07 121.57zm99.492-321.09-18.949 126.35-20.305-126.52-127.09-19.066 126.72-20.328 22.512-127.07 17.438 126.84 126.3 22.391z"/>
</svg>
